<svg width="20" height="21" fill="none" xmlns="http://www.w3.org/2000/svg"><path d="M1 .559a1 1 0 00-1 1v18a1 1 0 001 1h18a1 1 0 001-1v-18a1 1 0 00-1-1H1zm15.248 6.795A.694.694 0 0016 7.88v.054c0 4.125-3.125 8.75-8.75 8.75a8.816 8.816 0 01-4.1-1c-.195-.101-.119-.375.1-.375.548 0 1.063-.067 1.55-.195.83-.217.566-1.586.017-2.245a2.972 2.972 0 01-.328-.484c-.148-.274.075-.576.386-.576.246 0 .243-.255.021-.36A3.108 3.108 0 013.163 9.16c-.032-.202.18-.342.372-.27.246.093.402-.253.237-.459a3.02 3.02 0 01-.647-1.873c0-.069.002-.136.005-.201.03-.676.806-.76 1.315-.313 1.278 1.12 2.924 1.839 4.67 2.07.412.054.635-.267.635-.681a3.095 3.095 0 013.125-3.125c.76 0 1.426.283 1.997.767.165.139.38.214.59.166a5.315 5.315 0 001.023-.345c.226-.103.466.105.34.32-.06.1-.124.195-.193.287-.14.187.093.592.316.522a.21.21 0 01.235.32 5.208 5.208 0 01-.935 1.008z" fill="#D3A265"/></svg>