<svg width="131" height="25" fill="none" xmlns="http://www.w3.org/2000/svg"><path d="M4.493 7.537c1.505 0 2.721-1.121 2.721-2.53 0-1.409-1.216-2.562-2.721-2.562-1.474 0-2.69 1.153-2.69 2.562 0 1.409 1.216 2.53 2.69 2.53zm2.209 13.129V8.978l-6.597 2.05v.287c1.634 0 2.306.48 2.306 2.082v7.333c0 1.569-.608 2.562-2.241 2.562v.416h8.742v-.416c-1.602 0-2.21-.993-2.21-2.626zm17.492-.032V.972l-6.628 2.05v.288c1.633 0 2.305.512 2.305 2.113v4.996c-.288-.577-1.12-1.473-2.658-1.473-3.234 0-6.82 3.106-6.82 8.421 0 3.62 2.21 6.63 5.475 6.63 1.986 0 3.49-1.41 4.003-2.434v.096L20 23.675h6.405v-.416c-1.633 0-2.21-.993-2.21-2.626zm-6.244 1.44c-1.954 0-3.17-2.753-3.17-6.436 0-2.818 1.152-5.924 2.914-5.924 1.152 0 2.177 1.601 2.177 3.459v7.077c-.128.544-.64 1.825-1.921 1.825zm31.765-10.663S42.478 7.953 42.35 7.89c-1.153-.544-2.562-1.473-2.562-3.362 0-1.41 1.057-2.466 2.914-2.466 1.825 0 3.042.96 4.163 2.177.864.961 1.697 1.954 2.626 2.818a4.818 4.818 0 002.465 1.313h.128c-.64-2.177-1.376-4.9-1.12-7.109h-.224c-.897.449-1.281.769-2.53.769-1.761 0-3.298-.769-5.476-.769-3.074 0-5.796 2.626-5.796 5.86 0 3.075 2.466 4.932 4.035 5.668.16.064 6.02 2.882 6.372 3.043.737.352 3.17 1.312 3.17 3.81 0 2.274-1.825 3.49-3.778 3.49-3.523 0-4.42-7.14-11.208-7.14 1.153 2.401 1.28 5.283 1.025 8.037h.32c.833-.832 1.825-1.345 2.85-1.345 1.89 0 4.067 1.345 6.949 1.345 3.522 0 6.788-2.722 6.788-6.436 0-2.754-1.985-5.348-3.746-6.18zm15.483 9.575c-.192.48-.576 1.409-1.665 1.409-.897 0-1.601-.608-1.601-1.89V9.876h2.978v-.61h-2.978v-5.41h-.448c-.801 2.177-3.203 5.283-6.309 5.41v.61h2.466v10.63c0 2.082 1.153 3.491 3.907 3.491 2.113 0 3.618-1.44 4.13-3.01h-.48zm17.853-.224V8.978l-6.597 2.017v.32c1.634 0 2.306.48 2.306 2.082l-.032 7.685-.352.192c-.64.352-1.537 1.025-2.562 1.025-1.345 0-1.793-.96-1.793-2.434V8.978l-6.597 2.017v.32c1.633 0 2.306.48 2.306 2.082v7.557c0 1.665 1.056 3.042 3.106 3.042 1.761 0 3.362-.8 5.892-2.177v1.857h6.34v-.416c-1.633 0-2.017-.865-2.017-2.498zm17.784-.128V.972l-6.629 2.05v.288c1.633 0 2.306.512 2.306 2.113v4.996c-.288-.577-1.12-1.473-2.658-1.473-3.234 0-6.82 3.106-6.82 8.421 0 3.62 2.209 6.63 5.475 6.63 1.986 0 3.49-1.41 4.003-2.434v.096l.128 2.017h6.404v-.416c-1.633 0-2.209-.993-2.209-2.626zm-6.244 1.44c-1.954 0-3.17-2.753-3.17-6.436 0-2.818 1.152-5.924 2.913-5.924 1.153 0 2.178 1.601 2.178 3.459v7.077c-.128.544-.64 1.825-1.921 1.825zm14.693-14.537c1.505 0 2.722-1.121 2.722-2.53 0-1.409-1.217-2.562-2.722-2.562-1.473 0-2.69 1.153-2.69 2.562 0 1.409 1.217 2.53 2.69 2.53zm2.21 13.129V8.978l-6.597 2.05v.287c1.633 0 2.306.48 2.306 2.082v7.333c0 1.569-.609 2.562-2.242 2.562v.416h8.742v-.416c-1.601 0-2.209-.993-2.209-2.626zm11.626-11.72c-4.067 0-7.75 2.85-7.75 7.525 0 4.707 3.683 7.525 7.75 7.525 4.098 0 7.781-2.818 7.781-7.525 0-4.675-3.683-7.525-7.781-7.525zm0 14.314c-2.018 0-3.139-2.658-3.139-6.79 0-4.194 1.121-6.788 3.139-6.788 2.017 0 3.138 2.594 3.138 6.789s-1.121 6.789-3.138 6.789z" fill="#161616"/><circle cx="4.529" cy="4.868" r="3" fill="#D3A265"/></svg>