<svg width="92" height="90" fill="none" xmlns="http://www.w3.org/2000/svg"><path d="M27.819 47.03h38.21c7.52 0 13.62 6.1 13.62 13.62V73.2h-65.45V60.65c0-7.53 6.1-13.62 13.62-13.62z" fill="#fff"/><path d="M84.779 83.46H9.069c-2.83 0-5.13-2.3-5.13-5.13V64.11c0-2.83 2.3-5.13 5.13-5.13s5.13 2.3 5.13 5.13v9.08h65.45v-9.08c0-2.83 2.3-5.13 5.14-5.13 2.83 0 5.13 2.3 5.13 5.13v14.21c-.01 2.84-2.3 5.14-5.14 5.14z" fill="#F5C58A"/><path d="M14.659 83.46l-3.69 5.13h3.69l5.79-5.13h-5.79zm64.53 0l3.69 5.13h-3.69l-5.79-5.13h5.79zm-65.59-62.74h-9.07l-2.43 13.6h13.94l-2.44-13.6z" fill="#fff"/><path d="M55.059 12.77h-15.14v15.14h15.14V12.77z" fill="#F5C58A"/><path d="M79.649 1.16h-15.14V16.3h15.14V1.16z" fill="#fff"/><path d="M32.639 48.17h33.39c4.99 0 9.5 2.97 11.46 7.55a1.15 1.15 0 002.11-.91 14.764 14.764 0 00-13.57-8.94h-33.39c-.63 0-1.15.51-1.15 1.15.01.64.52 1.15 1.15 1.15zm52.14 9.66c-3.46 0-6.27 2.81-6.28 6.28v7.94h-30.43V56.83a1.15 1.15 0 00-2.3 0v15.22h-22.57a1.15 1.15 0 000 2.3h56.44c.63 0 1.15-.51 1.15-1.15v-9.08c.07-2.2 1.91-3.93 4.11-3.87 2.11.06 3.8 1.76 3.87 3.87v14.21c0 2.2-1.79 3.99-3.99 3.99h-15.03a1.15 1.15 0 000 2.3h3.21l5.47 4.84c.21.19.48.29.76.29h3.68a1.156 1.156 0 00.94-1.82l-2.38-3.32h3.35c3.47 0 6.28-2.81 6.28-6.28V64.12c-.01-3.47-2.82-6.28-6.28-6.29zm-4.14 29.62h-1.02l-3.21-2.84h2.18l2.05 2.84zm-62.13-15.4a1.15 1.15 0 000 2.3h.57a1.15 1.15 0 000-2.3h-.57z" fill="#333231"/><path d="M60.899 82.31H9.069c-2.2 0-3.99-1.79-3.99-3.99V64.1a3.987 3.987 0 017.97-.17v9.25a1.15 1.15 0 002.3 0V60.63c.01-6.89 5.59-12.47 12.48-12.47a1.15 1.15 0 000-2.3c-7.64.01-14.01 5.84-14.7 13.45a6.194 6.194 0 00-2.91-1.38V38.26a1.15 1.15 0 00-2.3 0v19.67a6.28 6.28 0 00-5.13 6.17v14.21c0 3.47 2.81 6.28 6.28 6.28h3.35l-2.38 3.32c-.37.51-.25 1.23.26 1.6.19.14.43.21.67.21h3.68c.28 0 .55-.1.76-.29l2.22-1.96c.47-.42.51-1.15.08-1.62-.42-.46-1.13-.51-1.6-.1l-1.89 1.68h-1.02l2.04-2.84h45.66c.63 0 1.15-.51 1.15-1.15a1.16 1.16 0 00-1.15-1.13zm4.27 0h-.54a1.15 1.15 0 000 2.3h.54a1.15 1.15 0 000-2.3zM45.779 52v.58a1.15 1.15 0 002.3 0V52a1.15 1.15 0 00-2.3 0zm-28.86-16.94c.22-.26.31-.6.25-.94l-2.44-13.61c-.1-.55-.57-.94-1.13-.94h-9.07c-.55 0-1.03.4-1.13.94L.959 34.12c-.11.62.3 1.22.93 1.33.07.01.13.02.2.02h13.95c.34 0 .66-.15.88-.41zm-13.45-1.88l2.03-11.32h7.15l2.03 11.32H3.469zm36.45-4.13h15.14c.63 0 1.15-.51 1.15-1.15V17.21a1.15 1.15 0 00-2.3 0v9.54h-12.85V13.9h13.99a1.15 1.15 0 000-2.3h-15.14c-.63 0-1.15.51-1.15 1.15v15.14c.02.65.53 1.16 1.16 1.16zm24.6-11.61h15.14c.63 0 1.15-.51 1.15-1.15V1.15c0-.63-.51-1.15-1.15-1.15h-15.14c-.63 0-1.15.51-1.15 1.15v15.14c0 .64.51 1.15 1.15 1.15zm1.14-15.14h12.84v12.85h-12.85l.01-12.85z" fill="#333231"/></svg>