<svg width="76" height="75" fill="none" xmlns="http://www.w3.org/2000/svg"><path d="M4.201 3.771a8.637 8.637 0 000 12.21l50.07 50.07 12.21-12.21-50.07-50.07a8.637 8.637 0 00-12.21 0z" fill="#F5C58A"/><path d="M10.631 22.421l-6.44-6.44a8.628 8.628 0 01.05-12.21 8.643 8.643 0 0112.17 0l6.44 6.44-12.22 12.21z" fill="#F5C58A"/><path d="M22.846 10.214L10.634 22.425l4.858 4.858 12.212-12.212-4.858-4.857zM54.27 66.051s-24.3-32.85 6.11-6.11c0 0-38.71-42.99 6.11-6.11l7.94 20.15-20.16-7.93z" fill="#fff"/><path d="M66.211 70.761c.86-2.3 2.67-4.11 4.97-4.97l3.23 8.21-8.2-3.24z" fill="#F5C58A"/><path d="M33.071 21.851c.39.39 1.03.39 1.42 0 .39-.39.39-1.03 0-1.42l-.5-.5a1 1 0 00-1.42.06c-.35.38-.35.97 0 1.36l.5.5z" fill="#333231"/><path d="M46.07 50.501c.89.22 3.94 1.68 13.63 10.2.42.37 1.05.32 1.42-.09.34-.38.33-.96-.01-1.33-.06-.07-6.09-6.76-10.56-12.52a1.005 1.005 0 10-1.6 1.22l.02.02c.95 1.22 1.96 2.48 2.98 3.7-5.19-3.83-6.52-3.56-7.34-2.81-1.02.93-.9 2.86 2.85 8.94l-35.41-35.4 10.8-10.8 3.43 3.44-8.92 8.92c-.39.39-.39 1.03 0 1.42.39.39 1.03.39 1.42 0l8.92-8.92 1.94 1.94c.39.39 1.03.39 1.42 0 .39-.39.39-1.03 0-1.42l-7.51-7.51-6.44-6.44c-3.73-3.8-9.83-3.87-13.64-.14-3.81 3.73-3.87 9.83-.14 13.64l.14.14c.39.4 1.02.41 1.42.02.4-.39.41-1.02.02-1.42l-.02-.02a7.629 7.629 0 010-10.79 7.629 7.629 0 0110.79 0l5.73 5.73-10.78 10.78-3.1-3.1c-.39-.39-1.03-.39-1.42 0-.39.39-.39 1.03 0 1.42l3.81 3.81 43.22 43.22c.06.05.12.09.18.12l.13.18a1.005 1.005 0 001.62-1.19c-4.34-5.88-8.78-12.99-9-14.96z" fill="#333231"/><path d="M75.35 73.622l-7.94-20.15c0-.01-.01-.01-.01-.02-.05-.1-.11-.2-.19-.28-.01-.01-.01-.03-.02-.04l-30.05-30.05c-.39-.39-1.03-.39-1.42 0-.39.39-.39 1.03 0 1.42l18.14 18.14c-8-5.81-8.88-5-9.56-4.35-.93.88-.74 2.37 2.94 7.4a1.008 1.008 0 101.63-1.19 26.528 26.528 0 01-2.81-4.43c1.55.62 6.15 3.33 19.59 14.38l4.25 10.8c-1.82.92-3.3 2.39-4.21 4.21l-7.53-2.97a1.005 1.005 0 00-.76 1.86c.01 0 .01.01.02.01l16.63 6.57c.52.2 1.1-.05 1.31-.57.09-.24.09-.5-.01-.74zm-7.78-3.41a7.33 7.33 0 013.07-3.07l1.99 5.06-5.06-1.99z" fill="#333231"/></svg>