<svg width="112" height="74" fill="none" xmlns="http://www.w3.org/2000/svg"><path d="M109.74 7.91H2.28v64.67h107.46V7.91z" fill="#F5C58A"/><path d="M100.96 13.19h-89.9V67.3h89.9V13.19z" fill="#fff"/><path d="M25.95 67.3l17.52-37.52L60.99 67.3H25.95z" fill="#F5C58A"/><path d="M65.75 19.59L52.23 48.54l8.76 18.76h27.04L65.75 19.59zM28.29 29.77a4.3 4.3 0 100-8.6 4.3 4.3 0 000 8.6z" fill="#F5C58A"/><path d="M109.74 14.59c.77 0 1.4-.63 1.4-1.4V7.91c0-.03-.02-.06-.02-.1a1.67 1.67 0 00-.15-.54c-.01-.03-.01-.06-.03-.09-.03-.04-.07-.08-.11-.12a.997.997 0 00-.2-.21c-.14-.11-.29-.2-.46-.26a.857.857 0 00-.27-.05c-.05-.01-.11-.03-.17-.03h-8.1c.18-.48.28-.98.28-1.5A4.307 4.307 0 0097.68.64a4.307 4.307 0 00-4.37 4.23v.14c0 .51.1 1.02.28 1.5H18.4c.18-.48.28-.98.28-1.5A4.307 4.307 0 0014.45.64a4.307 4.307 0 00-4.37 4.23v.14c0 .51.1 1.02.28 1.5h-8.1l-.16.03c-.37.03-.71.23-.93.53-.04.04-.08.08-.11.12-.02.03-.02.06-.03.09-.08.17-.13.35-.15.54 0 .03-.02.06-.02.1V72.6c0 .03.02.06.02.1.02.19.07.37.15.54.01.03.01.06.03.09.05.08.11.16.18.23.01.01.02.03.04.04.11.11.25.2.39.26.03.02.07.03.11.04.15.06.32.09.48.1h107.46c.16 0 .33-.04.48-.1.04-.01.07-.03.11-.04.14-.06.28-.15.39-.26.01-.01.02-.03.04-.04.07-.07.13-.15.18-.23.02-.03.02-.06.03-.09.08-.17.13-.35.15-.54 0-.03.02-.06.02-.1V19.59c0-.77-.63-1.4-1.4-1.4-.77 0-1.4.63-1.4 1.4V70.1l-5.98-3.6v-3.46c0-.77-.63-1.4-1.4-1.4-.77 0-1.4.63-1.4 1.4v2.85H88.9L67 18.99a1.4 1.4 0 00-2.54 0l-10.74 23c-.33.7-.02 1.54.68 1.86.7.33 1.54.02 1.86-.68l9.47-20.29L85.8 65.87H61.89L44.75 29.16a1.4 1.4 0 00-2.54 0L27.19 61.33c-.33.7-.02 1.54.68 1.86.7.32 1.54.02 1.86-.68l13.75-29.46L58.8 65.86h-4.89c-.77 0-1.4.63-1.4 1.4 0 .77.63 1.4 1.4 1.4h46.66l4.12 2.48H7.33l4.12-2.48h36.01c.77 0 1.4-.63 1.4-1.4 0-.77-.63-1.4-1.4-1.4h-35v-51.3h4.83c.77 0 1.4-.63 1.4-1.4 0-.77-.63-1.4-1.4-1.4h-5.84L7.33 9.28h97.37l-4.12 2.48h-71.1c-.77 0-1.4.63-1.4 1.4 0 .77.63 1.4 1.4 1.4h70.08v42.65c0 .77.63 1.4 1.4 1.4.77 0 1.4-.63 1.4-1.4V13.98l5.98-3.6v2.8c-.01.78.62 1.41 1.4 1.41-.01 0-.01 0 0 0zM96.13 5.01c0-.83.67-1.5 1.5-1.5s1.5.67 1.5 1.5-.67 1.5-1.5 1.5c-.84-.01-1.5-.68-1.5-1.5zm-83.23 0c0-.83.67-1.49 1.5-1.49s1.49.67 1.49 1.5a1.496 1.496 0 01-2.99-.01zM9.66 66.5l-5.98 3.6V10.38l5.98 3.6V66.5z" fill="#333231"/><path d="M24.7 14.59c.77 0 1.4-.63 1.4-1.4 0-.77-.63-1.4-1.4-1.4h-.72c-.77 0-1.4.63-1.4 1.4 0 .77.63 1.4 1.4 1.4h.72z" fill="#321F10"/><path d="M28.29 31.18a5.706 5.706 0 00.01-11.41c-3.15 0-5.71 2.55-5.71 5.7.01 3.15 2.55 5.7 5.7 5.71zm0-8.61c1.6 0 2.9 1.29 2.91 2.9 0 1.6-1.29 2.9-2.9 2.91-1.61.01-2.9-1.29-2.91-2.9v-.01c.01-1.6 1.3-2.89 2.9-2.9z" fill="#333231"/></svg>