<svg width="88" height="85" fill="none" xmlns="http://www.w3.org/2000/svg"><path d="M2 83.99V11h85v59.573C87 77.985 80.989 84 73.58 84L2 83.99z" fill="#fff"/><path d="M78.5 75c4.694 0 8.5-2.239 8.5-5s-3.806-5-8.5-5-8.5 2.239-8.5 5 3.806 5 8.5 5z" fill="#fff"/><path d="M70 6.308V70c0-2.928 3.805-5.308 8.5-5.308S87 67.072 87 70V6.308C87 3.381 83.195 1 78.5 1S70 3.37 70 6.308zM52.748 44.753l-12.854-9.627a.672.672 0 00-.785 0l-12.854 9.627a.628.628 0 00-.12.892c.12.16.311.248.512.248h2.937V59H49.42V45.893h2.937A.644.644 0 0053 45.26a.626.626 0 00-.252-.506z" fill="#F5C58A"/><path d="M67 11.11c0-.615-.5-1.11-1.123-1.11H1.123C.5 10 0 10.495 0 11.11v72.78C0 84.504.5 85 1.122 85c.623 0 1.123-.495 1.123-1.11V12.21h63.643c.612 0 1.112-.495 1.112-1.1z" fill="#321F10"/><path d="M78.6 0c-5.27 0-9.399 2.797-9.399 6.378v14.276h-3.019v-3.531c0-.614-.494-1.107-1.11-1.107-.616 0-1.11.493-1.11 1.107v3.53H54.45v-3.53c0-.614-.495-1.107-1.11-1.107-.617 0-1.111.493-1.111 1.107v3.53h-9.511v-3.53c0-.614-.495-1.107-1.11-1.107-.616 0-1.111.493-1.111 1.107v3.53h-9.51v-3.53c0-.614-.495-1.107-1.111-1.107s-1.11.493-1.11 1.107v3.53h-9.511v-3.53c0-.614-.495-1.107-1.11-1.107-.617 0-1.111.493-1.111 1.107v3.53H13.42a1.105 1.105 0 100 2.214h3.615v6.389H9.513a1.105 1.105 0 100 2.213h7.522v6.388H9.513a1.105 1.105 0 100 2.213h7.522v6.389H9.513a1.105 1.105 0 100 2.213h7.522v6.388H9.513a1.105 1.105 0 100 2.214h7.522v6.388H9.513c-.616 0-1.11.493-1.11 1.107 0 .613.494 1.106 1.11 1.106h7.522v6.389H9.513a1.105 1.105 0 100 2.213h7.522v3.742c0 .614.494 1.107 1.11 1.107.616 0 1.11-.493 1.11-1.107v-3.742h9.511v3.742c0 .614.495 1.107 1.11 1.107.617 0 1.111-.493 1.111-1.107v-3.742h9.51v3.742c0 .614.496 1.107 1.111 1.107.616 0 1.111-.493 1.111-1.107v-3.742h9.51v3.742c0 .614.495 1.107 1.111 1.107s1.11-.493 1.11-1.107v-3.742h17.931a12.349 12.349 0 006.22 1.57 11.98 11.98 0 006.612-1.812c-1.615 5.091-6.35 8.542-11.711 8.552H6.111a1.105 1.105 0 100 2.213h67.391c7.996-.01 14.478-6.469 14.488-14.437a.872.872 0 00-.05-.231c.03-.211.05-.433.05-.644 0-3.571-4.13-6.368-9.4-6.368a11.532 11.532 0 00-7.188 2.233V34.477c0-.614-.495-1.107-1.11-1.107-.616 0-1.111.493-1.111 1.107v3.36h-3.019v-6.388h4.13c.615 0 1.11-.493 1.11-1.107V6.368c0-2.263 3.291-4.165 7.188-4.165s7.189 1.912 7.189 4.165v50.644c0 .614.495 1.107 1.11 1.107.616 0 1.111-.493 1.111-1.107V6.368C88.01 2.797 83.88 0 78.6 0zM63.971 22.857v6.389h-9.51v-6.389h9.51zm-44.685 0h9.51v6.389h-9.51v-6.389zm0 49.366v-6.388h9.51v6.388h-9.51zm44.685-6.388v6.388h-9.51v-6.388h9.51zm5.23-10.805h-3.019v-6.388h3.02v6.388zm0 2.213v6.389h-3.019v-6.389h3.02zm0 8.592v3.793c.01.925.283 1.83.798 2.605h-3.817v-6.398h3.02zm9.4-.382c3.897 0 7.188 1.911 7.188 4.165 0 2.253-3.291 4.165-7.189 4.165-3.897 0-7.188-1.912-7.188-4.165 0-2.254 3.291-4.165 7.188-4.165zM69.2 40.05v6.389h-3.019V40.05h3.02zm-5.23-2.213H53.41a1.105 1.105 0 100 2.213h10.56v6.389h-5.31a1.105 1.105 0 100 2.213h5.31v6.388h-6.633a1.105 1.105 0 100 2.214h6.633v6.388H37.873a1.105 1.105 0 100 2.213H52.25v6.388h-9.51v-3.199c0-.613-.495-1.106-1.111-1.106s-1.11.493-1.11 1.106v3.2h-9.511v-6.389h2.433a1.105 1.105 0 100-2.213H19.286v-6.399h5.533a1.105 1.105 0 100-2.213h-5.533v-6.388h2.766a1.105 1.105 0 100-2.213h-2.766V40.04h4.977a1.105 1.105 0 100-2.213h-4.977v-6.388h9.51v4.517c0 .613.495 1.106 1.111 1.106s1.11-.493 1.11-1.106v-4.517h13.489a1.105 1.105 0 100-2.214H31.018v-6.388h9.51v3.531c0 .614.495 1.107 1.11 1.107.617 0 1.111-.493 1.111-1.107v-3.531h9.51v6.388h-3.32a1.105 1.105 0 100 2.214h3.32v1.981c0 .614.495 1.107 1.111 1.107s1.111-.493 1.111-1.107v-1.98h9.51v6.398h-.02zm2.211-14.98h3.02v6.389h-3.02v-6.389z" fill="#321F10"/><path d="M86.5 60c-.832 0-1.5.507-1.5 1.138v.724c0 .631.668 1.138 1.5 1.138s1.5-.507 1.5-1.138v-.724c0-.631-.668-1.138-1.5-1.138zM38.565 34.347l-12.876 9.566a1.685 1.685 0 00-.333 2.394c.333.423.846.67 1.39.67h1.834v11.94c0 .6.494 1.083 1.108 1.083h19.868c.615 0 1.109-.483 1.109-1.084v-11.28c0-.6-.494-1.083-1.109-1.083-.614 0-1.108.483-1.108 1.084v10.215H30.787v-11.95c0-.6-.494-1.083-1.109-1.083h-1.581l11.515-8.55 12.594 9.358a1.122 1.122 0 001.552-.168 1.064 1.064 0 00-.172-1.517c-.01-.01-.03-.02-.04-.03L40.67 34.348a1.77 1.77 0 00-2.105 0zM9.126 21C8.502 21 8 21.445 8 22c0 .555.502 1 1.126 1h.748c.624 0 1.126-.445 1.126-1 0-.555-.502-1-1.126-1h-.748zM66 78.633v-1.266c0-.758-.445-1.367-1-1.367-.555 0-1 .609-1 1.367v1.266c0 .758.445 1.367 1 1.367.555 0 1-.621 1-1.367z" fill="#321F10"/></svg>