<svg width="20" height="21" viewBox="0 0 20 21" fill="none" xmlns="http://www.w3.org/2000/svg">
<path d="M19.2 0.558594H0.8C0.3575 0.558594 0 0.916094 0 1.35859V19.7586C0 20.2011 0.3575 20.5586 0.8 20.5586H19.2C19.6425 20.5586 20 20.2011 20 19.7586V1.35859C20 0.916094 19.6425 0.558594 19.2 0.558594ZM16.89 6.39609H15.2925C14.04 6.39609 13.7975 6.99109 13.7975 7.86609V9.79359H16.7875L16.3975 12.8111H13.7975V20.5586H10.68V12.8136H8.0725V9.79359H10.68V7.56859C10.68 4.98609 12.2575 3.57859 14.5625 3.57859C15.6675 3.57859 16.615 3.66109 16.8925 3.69859V6.39609H16.89Z" fill="#D3A265"/>
</svg>
