<svg width="20" height="21" viewBox="0 0 20 21" fill="none" xmlns="http://www.w3.org/2000/svg">
<path d="M1 0.558594C0.447715 0.558594 0 1.00631 0 1.55859V19.5586C0 20.1109 0.447715 20.5586 1 20.5586H19C19.5523 20.5586 20 20.1109 20 19.5586V1.55859C20 1.00631 19.5523 0.558594 19 0.558594H1ZM16.2477 7.35429C16.0934 7.48604 16 7.67671 16 7.87962V7.93359C16 12.0586 12.875 16.6836 7.25 16.6836C5.7681 16.6836 4.37583 16.3251 3.14909 15.6839C2.95545 15.5827 3.0315 15.3086 3.25 15.3086C3.79819 15.3086 4.31299 15.2418 4.8005 15.1144C5.63034 14.8974 5.36607 13.5283 4.81734 12.869C4.69317 12.7198 4.58323 12.5578 4.48938 12.3848C4.34084 12.111 4.5635 11.8086 4.875 11.8086C5.12106 11.8086 5.11844 11.5536 4.89602 11.4483C4.00934 11.0288 3.32851 10.1778 3.16344 9.16097C3.13061 8.95875 3.34304 8.81895 3.53479 8.89108C3.78098 8.9837 3.93666 8.63754 3.77205 8.43238C3.35356 7.91081 3.125 7.2347 3.125 6.55859C3.125 6.4901 3.1265 6.4231 3.1295 6.35761C3.1605 5.68152 3.9358 5.5989 4.445 6.04474C5.72349 7.16414 7.36923 7.88367 9.11594 8.11456C9.52709 8.16891 9.75 7.84832 9.75 7.43359C9.75 5.68359 11.125 4.30859 12.875 4.30859C13.6351 4.30859 14.3009 4.59158 14.8723 5.07562C15.0369 5.21504 15.2519 5.29023 15.4622 5.24214C15.8248 5.15923 16.1602 5.04412 16.4846 4.89683C16.7112 4.79395 16.9514 5.00243 16.8242 5.2163C16.7648 5.31614 16.7005 5.41223 16.6319 5.50416C16.4922 5.69127 16.7254 6.09611 16.9482 6.02621C17.139 5.96634 17.2967 6.1813 17.1831 6.34586C16.9171 6.73133 16.6052 7.04902 16.2477 7.35429Z" fill="#D3A265"/>
</svg>
