<svg width="20" height="21" viewBox="0 0 20 21" fill="none" xmlns="http://www.w3.org/2000/svg">
<path d="M19.2 0.558594H0.8C0.3575 0.558594 0 0.916094 0 1.35859V19.7586C0 20.2011 0.3575 20.5586 0.8 20.5586H19.2C19.6425 20.5586 20 20.2011 20 19.7586V1.35859C20 0.916094 19.6425 0.558594 19.2 0.558594ZM5.9325 17.6011H2.965V8.05609H5.9325V17.6011ZM4.45 6.75109C4.10982 6.75109 3.77727 6.65022 3.49442 6.46122C3.21157 6.27223 2.99111 6.0036 2.86093 5.68931C2.73074 5.37502 2.69668 5.02919 2.76305 4.69554C2.82942 4.36189 2.99323 4.05542 3.23378 3.81487C3.47432 3.57432 3.7808 3.41051 4.11444 3.34414C4.44809 3.27778 4.79393 3.31184 5.10822 3.44202C5.4225 3.5722 5.69113 3.79266 5.88013 4.07551C6.06912 4.35837 6.17 4.69091 6.17 5.03109C6.1675 5.98109 5.3975 6.75109 4.45 6.75109ZM17.0425 17.6011H14.0775V12.9586C14.0775 11.8511 14.0575 10.4286 12.535 10.4286C10.9925 10.4286 10.755 11.6336 10.755 12.8786V17.6011H7.7925V8.05609H10.6375V9.36109H10.6775C11.0725 8.61109 12.04 7.81859 13.485 7.81859C16.49 7.81859 17.0425 9.79609 17.0425 12.3661V17.6011Z" fill="#D3A265"/>
</svg>
